<svg width="1508" height="202" viewBox="0 0 1508 202" fill="none" xmlns="http://www.w3.org/2000/svg">
<path d="M62.6 104.7V125.7C62.6 150.3 62.9 168.3 64.1 179.1C65 186.6 66.8 191.4 74.6 192.6C78.2 193.2 83.9 193.5 87.5 193.5C90.8 193.5 92 195 92 196.2C92 198 90.2 198.9 86.3 198.9C69.5 198.9 50.9 198 44 198C37.1 198 20.3 198.9 10.4 198.9C6.8 198.9 5 198.3 5 196.2C5 195 5.9 193.5 8.9 193.5C12.8 193.5 15.8 193.2 18.2 192.6C23.6 191.4 25.1 186.6 26 179.1C27.2 168.3 27.2 149.4 27.2 124.8V79.8C27.2 41.1 27.2 33.9 26.9 25.8C26.3 17.1 23.9 14.1 15.5 12C13.4 11.4 8.9 11.1 5 11.1C2.6 11.1 0.500001 10.2 0.500001 8.39999C0.500001 6.6 2.6 5.99999 6.8 5.99999C20.3 5.99999 37.1 6.6 44.6 6.6C54.8 6.6 113.3 6.89999 119.6 6.6C124.4 6.29998 127.7 5.99999 130.4 5.39999C131.9 5.1 133.1 3.9 134.6 3.9C135.5 3.9 136.4 5.1 136.4 6.29998C136.4 8.1 135.2 11.1 134.3 17.7C134 20.4 133.4 35.4 133.1 38.4C132.8 40.5 132.2 43.5 130.4 43.5C128.6 43.5 127.1 42.3 127.1 39.3C127.1 37.2 127.4 33.3 125.6 29.7C123.8 26.1 118.7 22.2 108.8 21.9L65 21C63.5 21 62.6 21.6 62.6 24.6V86.4C62.6 87.9 62.9 88.8 64.4 88.8L101.3 88.5C105.8 88.5 109.4 88.5 113.3 88.2C118.1 87.9 122 87 124.4 83.7C125.9 82.2 126.5 81 128 81C128.9 81 129.5 81.9 129.5 83.4C129.5 84.9 128.3 91.8 127.4 99.9C126.8 105 126.5 116.7 126.5 118.5C126.5 120.6 126.2 124.2 123.5 124.2C122 124.2 121.1 122.4 121.1 120.6C121.1 118.8 120.5 115.8 119.3 112.8C118.1 109.2 114.8 104.1 106.7 103.5C100.1 102.9 68.9 102.6 64.4 102.6C63.2 102.6 62.6 102.9 62.6 104.7ZM191.555 124.8V79.8C191.555 41.1 191.555 33.9 191.255 25.8C190.655 17.1 188.255 14.4 179.855 12C177.755 11.4 173.255 11.1 169.355 11.1C166.655 11.1 164.855 10.2 164.855 8.39999C164.855 6.6 166.955 5.99999 170.855 5.99999C184.655 5.99999 201.455 6.6 206.855 6.6C215.855 6.6 239.855 5.99999 247.955 5.99999C264.755 5.99999 283.955 7.49998 298.055 16.8C305.555 21.9 316.655 34.8 316.655 51.9C316.655 70.8 305.855 87.6 280.055 108.3C303.455 137.1 322.055 160.2 337.955 176.1C352.655 190.8 361.955 192 366.155 192.9C368.855 193.5 370.355 193.5 372.455 193.5C374.555 193.5 375.755 195 375.755 196.2C375.755 198.3 373.955 198.9 370.655 198.9H345.455C330.755 198.9 323.555 197.4 316.655 193.8C305.255 188.1 295.355 176.1 280.655 156.3C270.155 142.5 259.055 125.4 255.755 121.5C254.255 120 252.755 119.7 250.955 119.7L227.255 119.1C226.055 119.1 225.155 119.7 225.155 121.2V124.8C225.155 148.5 225.455 168.3 226.655 179.1C227.555 186.6 228.755 191.4 236.855 192.6C240.755 193.2 246.455 193.5 249.755 193.5C251.855 193.5 253.055 195 253.055 196.2C253.055 198 250.955 198.9 247.655 198.9C232.355 198.9 210.455 198 206.555 198C201.455 198 184.655 198.9 174.155 198.9C170.855 198.9 169.055 198 169.055 196.2C169.055 195 169.955 193.5 173.255 193.5C177.155 193.5 180.155 193.2 182.555 192.6C187.955 191.4 189.455 186.6 190.355 179.1C191.555 168.3 191.555 148.2 191.555 124.8ZM225.155 23.7V99.6C225.155 102.3 225.755 103.2 227.555 104.1C233.255 105.9 241.055 106.5 247.655 106.5C258.155 106.5 261.755 105.6 266.255 102.3C274.355 96.6 283.355 85.5 283.355 64.5C283.355 28.5 258.755 19.2 243.155 19.2C236.555 19.2 230.255 19.5 227.555 20.1C225.755 20.7 225.155 21.6 225.155 23.7ZM397.22 124.8V79.8C397.22 41.1 397.22 33.9 396.92 25.8C396.32 17.1 393.62 14.1 387.92 12.3C384.92 11.4 381.62 11.1 378.32 11.1C375.62 11.1 374.12 10.5 374.12 8.1C374.12 6.6 376.22 5.99999 380.42 5.99999C390.32 5.99999 408.32 6.6 415.82 6.6C422.42 6.6 439.52 5.99999 449.72 5.99999C453.02 5.99999 455.12 6.6 455.12 8.1C455.12 10.5 453.62 11.1 450.92 11.1C448.22 11.1 446.12 11.4 443.12 12C435.92 13.2 433.82 16.8 433.22 25.8C432.62 33.9 432.62 41.1 432.62 79.8V124.8C432.62 149.4 432.62 169.8 433.82 180.6C434.72 187.5 436.52 191.4 444.32 192.6C447.92 193.2 453.92 193.5 457.82 193.5C460.82 193.5 462.02 195 462.02 196.2C462.02 198 459.92 198.9 456.92 198.9C439.52 198.9 421.52 198 414.32 198C408.32 198 390.32 198.9 379.82 198.9C376.52 198.9 374.72 198 374.72 196.2C374.72 195 375.62 193.5 378.92 193.5C382.82 193.5 385.82 193.2 388.22 192.6C393.62 191.4 395.12 187.8 396.02 180.3C397.22 169.8 397.22 149.4 397.22 124.8ZM553.888 79.8V91.2H555.088C564.088 81.6 602.488 43.8 610.288 35.1C617.788 26.7 623.488 20.7 623.488 16.2C623.488 13.5 622.288 11.7 619.888 11.1C617.488 10.5 616.288 9.89999 616.288 8.39999C616.288 6.6 617.788 5.99999 620.488 5.99999C626.188 5.99999 640.588 6.6 647.788 6.6C655.888 6.6 670.588 5.99999 678.688 5.99999C681.388 5.99999 683.188 6.6 683.188 8.39999C683.188 10.2 681.688 11.1 679.288 11.1C675.388 11.1 668.788 12.3 663.988 14.1C655.588 17.1 647.188 22.5 636.088 33C627.687 40.8 588.388 78 580.288 87.3C589.588 99.3 641.487 153.3 651.688 162.9C663.388 173.4 673.588 184.5 687.688 190.2C695.488 193.5 700.888 193.5 703.888 193.5C705.988 193.5 707.488 194.7 707.488 196.2C707.488 198 705.988 198.9 701.188 198.9H678.088C670.288 198.9 665.488 198.9 659.788 198.3C645.687 197.1 636.988 191.7 625.588 181.8C614.188 171.9 563.488 113.1 557.788 105.3L555.088 101.7H553.888V124.8C553.888 148.2 553.888 168.3 554.488 179.4C555.088 186.6 557.488 191.4 564.088 192.6C567.688 193.2 573.688 193.5 576.988 193.5C579.088 193.5 580.588 195 580.588 196.2C580.588 198 578.488 198.9 575.488 198.9C560.788 198.9 541.888 198 535.288 198C529.288 198 512.488 198.9 501.988 198.9C498.688 198.9 496.888 198 496.888 196.2C496.888 195 497.788 193.5 501.088 193.5C504.988 193.5 507.988 193.2 510.388 192.6C515.787 191.4 517.288 186.6 518.188 179.1C519.388 168.3 519.388 148.2 519.388 124.8V79.8C519.388 41.1 519.388 33.9 519.088 25.8C518.488 17.1 516.088 14.4 507.688 12C505.588 11.4 501.088 11.1 497.188 11.1C494.488 11.1 492.688 10.2 492.688 8.39999C492.688 6.6 494.788 5.99999 498.688 5.99999C512.488 5.99999 529.288 6.6 535.588 6.6C541.888 6.6 560.788 5.99999 569.488 5.99999C573.388 5.99999 575.188 6.6 575.188 8.39999C575.188 10.2 573.688 11.1 571.588 11.1C568.888 11.1 567.388 11.4 564.088 12C556.888 13.2 554.788 16.8 554.188 25.8C553.888 33.9 553.888 41.1 553.888 79.8ZM795.329 134.7H733.229C731.729 134.7 731.429 135 730.829 136.5L716.729 170.7C714.029 177 712.829 183.3 712.829 186.3C712.829 190.8 715.229 193.5 723.329 193.5H727.229C730.529 193.5 731.129 194.7 731.129 196.2C731.129 198.3 729.629 198.9 726.929 198.9C718.229 198.9 705.929 198 697.529 198C694.829 198 680.729 198.9 666.929 198.9C663.629 198.9 662.129 198.3 662.129 196.2C662.129 194.7 663.029 193.5 665.129 193.5C667.529 193.5 670.529 193.2 672.929 193.2C684.929 191.4 689.429 183.6 694.829 170.7L763.829 10.2C766.829 2.99999 768.929 -7.86781e-06 771.629 -7.86781e-06C775.529 -7.86781e-06 776.729 2.4 779.429 8.1C785.729 22.2 829.829 126.6 846.629 165.3C856.829 188.4 864.329 191.7 869.129 192.6C873.029 193.2 876.029 193.5 879.029 193.5C881.429 193.5 882.629 194.4 882.629 196.2C882.629 198.3 881.129 198.9 871.229 198.9C861.929 198.9 842.729 198.9 820.529 198.3C815.729 198 812.729 198 812.729 196.2C812.729 194.7 813.329 193.8 816.029 193.5C817.829 193.2 819.629 190.8 818.429 187.8L798.029 136.5C797.429 135 796.529 134.7 795.329 134.7ZM738.629 120.6H789.629C790.829 120.6 791.129 120 790.829 119.1L765.929 54.3C765.629 53.4 765.329 51.9 764.729 51.9C763.829 51.9 763.529 53.4 763.229 54.3L737.729 118.8C737.129 120 737.729 120.6 738.629 120.6ZM924.88 60L927.88 164.1C928.48 183.9 931.78 189.9 936.88 191.7C941.38 193.2 946.48 193.5 950.68 193.5C953.68 193.5 955.18 194.7 955.18 196.2C955.18 198.3 952.78 198.9 949.18 198.9C932.08 198.9 919.78 198 914.98 198C912.58 198 899.98 198.9 886.48 198.9C882.88 198.9 880.48 198.6 880.48 196.2C880.48 194.7 882.28 193.5 884.68 193.5C888.28 193.5 893.08 193.2 896.68 192.3C903.58 190.5 904.48 183.6 904.78 161.4L907.18 10.2C907.18 5.1 908.98 1.49999 911.68 1.49999C914.98 1.49999 918.58 5.39999 923.08 9.89999C926.38 13.2 965.98 53.7 1004.38 91.2C1022.38 108.9 1057.48 144.9 1061.38 148.5H1062.58L1059.88 35.1C1059.58 19.5 1057.18 15 1050.88 12.6C1046.98 11.1 1040.68 11.1 1037.08 11.1C1033.78 11.1 1032.88 9.89999 1032.88 8.39999C1032.88 6.29998 1035.58 5.99999 1039.48 5.99999C1053.28 5.99999 1067.38 6.6 1073.08 6.6C1076.08 6.6 1085.98 5.99999 1098.88 5.99999C1102.48 5.99999 1104.88 6.29998 1104.88 8.39999C1104.88 9.89999 1103.38 11.1 1100.38 11.1C1097.68 11.1 1095.58 11.1 1092.28 12C1085.08 14.1 1082.98 18.6 1082.68 33L1079.68 193.8C1079.68 199.5 1077.58 201.9 1075.48 201.9C1070.98 201.9 1067.38 199.2 1064.68 196.5C1048.18 181.2 1015.18 149.7 987.58 123C958.78 95.4 930.88 64.5 925.78 60H924.88ZM1180.73 182.7H1244.03C1271.03 182.7 1280.33 177.3 1284.83 169.5C1286.93 165.6 1288.73 161.4 1289.63 157.8C1290.23 155.1 1290.83 153.6 1292.63 153.6C1294.73 153.6 1295.33 155.4 1295.33 161.4C1295.33 169.8 1292.03 186.3 1290.23 192.6C1288.73 197.1 1286.93 199.2 1282.13 199.2C1238.03 199.2 1193.33 198 1139.93 198C1136.93 198 1135.43 197.1 1135.43 195.3C1135.43 193.8 1135.73 192.3 1138.73 187.8C1175.93 131.7 1214.33 74.1 1249.73 21.6H1199.93C1186.43 21.6 1170.83 21.6 1162.43 26.1C1153.73 30.9 1148.93 39.6 1148.33 45.6C1147.73 49.2 1146.53 50.1 1145.03 50.1C1143.23 50.1 1142.33 48.9 1142.33 45.9C1142.33 39.9 1146.23 16.8 1147.73 8.99998C1148.03 5.39999 1149.23 4.19999 1150.73 4.19999C1153.13 4.19999 1154.63 5.69999 1161.23 5.99999C1186.43 6.89999 1199.03 6.6 1209.83 6.6H1291.13C1293.83 6.6 1295.63 7.49998 1295.63 8.69999C1295.63 10.8 1295.03 11.7 1294.13 13.5C1257.53 70.8 1217.93 129 1180.73 182.7ZM1420.23 134.7H1358.13C1356.63 134.7 1356.33 135 1355.73 136.5L1341.63 170.7C1338.93 177 1337.73 183.3 1337.73 186.3C1337.73 190.8 1340.13 193.5 1348.23 193.5H1352.13C1355.43 193.5 1356.03 194.7 1356.03 196.2C1356.03 198.3 1354.53 198.9 1351.83 198.9C1343.13 198.9 1330.83 198 1322.43 198C1319.73 198 1305.63 198.9 1291.83 198.9C1288.53 198.9 1287.03 198.3 1287.03 196.2C1287.03 194.7 1287.93 193.5 1290.03 193.5C1292.43 193.5 1295.43 193.2 1297.83 193.2C1309.83 191.4 1314.33 183.6 1319.73 170.7L1388.73 10.2C1391.73 2.99999 1393.83 -7.86781e-06 1396.53 -7.86781e-06C1400.43 -7.86781e-06 1401.63 2.4 1404.33 8.1C1410.63 22.2 1454.73 126.6 1471.53 165.3C1481.73 188.4 1489.23 191.7 1494.03 192.6C1497.93 193.2 1500.93 193.5 1503.93 193.5C1506.33 193.5 1507.53 194.4 1507.53 196.2C1507.53 198.3 1506.03 198.9 1496.13 198.9C1486.83 198.9 1467.63 198.9 1445.43 198.3C1440.63 198 1437.63 198 1437.63 196.2C1437.63 194.7 1438.23 193.8 1440.93 193.5C1442.73 193.2 1444.53 190.8 1443.33 187.8L1422.93 136.5C1422.33 135 1421.43 134.7 1420.23 134.7ZM1363.53 120.6H1414.53C1415.73 120.6 1416.03 120 1415.73 119.1L1390.83 54.3C1390.53 53.4 1390.23 51.9 1389.63 51.9C1388.73 51.9 1388.43 53.4 1388.13 54.3L1362.63 118.8C1362.03 120 1362.63 120.6 1363.53 120.6Z" fill="black"/>
</svg>
